<?xml version="1.0" encoding="UTF-8" standalone="no"?>
<!-- Created with Inkscape (http://www.inkscape.org/) -->

<svg
   xmlns:dc="http://purl.org/dc/elements/1.1/"
   xmlns:cc="http://creativecommons.org/ns#"
   xmlns:rdf="http://www.w3.org/1999/02/22-rdf-syntax-ns#"
   xmlns:svg="http://www.w3.org/2000/svg"
   xmlns="http://www.w3.org/2000/svg"
   xmlns:sodipodi="http://sodipodi.sourceforge.net/DTD/sodipodi-0.dtd"
   xmlns:inkscape="http://www.inkscape.org/namespaces/inkscape"
   width="100"
   height="100"
   viewBox="0 0 26.458333 26.458334"
   version="1.1"
   id="svg8"
   sodipodi:docname="stamp.svg"
   inkscape:version="0.92.4 (5da689c313, 2019-01-14)">
  <defs
     id="defs2" />
  <sodipodi:namedview
     id="base"
     pagecolor="#ffffff"
     bordercolor="#666666"
     borderopacity="1.0"
     inkscape:pageopacity="0.0"
     inkscape:pageshadow="2"
     inkscape:zoom="7.9195959"
     inkscape:cx="50.829627"
     inkscape:cy="53.231905"
     inkscape:document-units="px"
     inkscape:current-layer="layer1"
     showgrid="false"
     units="px"
     inkscape:window-width="1920"
     inkscape:window-height="1017"
     inkscape:window-x="-8"
     inkscape:window-y="244"
     inkscape:window-maximized="1">
    <inkscape:grid
       type="xygrid"
       id="grid817" />
  </sodipodi:namedview>
  <metadata
     id="metadata5">
    <rdf:RDF>
      <cc:Work
         rdf:about="">
        <dc:format>image/svg+xml</dc:format>
        <dc:type
           rdf:resource="http://purl.org/dc/dcmitype/StillImage" />
        <dc:title />
      </cc:Work>
    </rdf:RDF>
  </metadata>
  <g
     inkscape:label="Layer 1"
     inkscape:groupmode="layer"
     id="layer1"
     transform="translate(0,-270.54165)">
    <path
       style="fill:#f17ba7;fill-opacity:1;stroke:none;stroke-width:32.00005341;stroke-linecap:butt;stroke-miterlimit:4;stroke-dasharray:none;stroke-opacity:1"
       d="M 5 0 A 4.9999997 4.9999997 0 0 1 0 5 L 0 11.667969 A 4.9999997 4.9999997 0 0 1 5 16.667969 A 4.9999997 4.9999997 0 0 1 0 21.667969 L 0 28.339844 A 4.9999997 4.9999997 0 0 1 0.1796875 28.333984 A 4.9999997 4.9999997 0 0 1 5.1796875 33.333984 A 4.9999997 4.9999997 0 0 1 0.1796875 38.333984 A 4.9999997 4.9999997 0 0 1 0 38.324219 L 0 45 A 4.9999997 4.9999997 0 0 1 5 50 A 4.9999997 4.9999997 0 0 1 0 55 L 0 61.667969 A 4.9999997 4.9999997 0 0 1 5 66.667969 A 4.9999997 4.9999997 0 0 1 0 71.667969 L 0 78.333984 A 4.9999997 4.9999997 0 0 1 5 83.333984 A 4.9999997 4.9999997 0 0 1 0 88.333984 L 0 95 A 4.9999997 4.9999997 0 0 1 5 100 L 11.666016 100 A 4.9999997 4.9999997 0 0 1 16.666016 95 A 4.9999997 4.9999997 0 0 1 21.666016 100 L 28.339844 100 A 4.9999997 4.9999997 0 0 1 28.332031 99.820312 A 4.9999997 4.9999997 0 0 1 33.332031 94.820312 A 4.9999997 4.9999997 0 0 1 38.332031 99.820312 A 4.9999997 4.9999997 0 0 1 38.324219 100 L 45 100 A 4.9999997 4.9999997 0 0 1 50 95 A 4.9999997 4.9999997 0 0 1 55 100 L 61.666016 100 A 4.9999997 4.9999997 0 0 1 66.666016 95 A 4.9999997 4.9999997 0 0 1 71.666016 100 L 78.332031 100 A 4.9999997 4.9999997 0 0 1 83.332031 95 A 4.9999997 4.9999997 0 0 1 88.332031 100 L 95 100 A 4.9999997 4.9999997 0 0 1 100 95 L 100 88.333984 A 4.9999997 4.9999997 0 0 1 95 83.333984 A 4.9999997 4.9999997 0 0 1 100 78.333984 L 100 71.667969 A 4.9999997 4.9999997 0 0 1 95 66.667969 A 4.9999997 4.9999997 0 0 1 100 61.667969 L 100 55 A 4.9999997 4.9999997 0 0 1 95 50 A 4.9999997 4.9999997 0 0 1 100 45 L 100 38.324219 A 4.9999997 4.9999997 0 0 1 95.179688 33.333984 A 4.9999997 4.9999997 0 0 1 100 28.339844 L 100 21.667969 A 4.9999997 4.9999997 0 0 1 95 16.667969 A 4.9999997 4.9999997 0 0 1 100 11.667969 L 100 5 A 4.9999997 4.9999997 0 0 1 95 0 L 88.333984 0 A 4.9999997 4.9999997 0 0 1 83.333984 5 A 4.9999997 4.9999997 0 0 1 78.333984 0 L 71.667969 0 A 4.9999997 4.9999997 0 0 1 66.667969 5 A 4.9999997 4.9999997 0 0 1 61.667969 0 L 55 0 A 4.9999997 4.9999997 0 0 1 50 5 A 4.9999997 4.9999997 0 0 1 45 0 L 38.324219 0 A 4.9999997 4.9999997 0 0 1 33.333984 4.8203125 A 4.9999997 4.9999997 0 0 1 28.339844 0 L 21.667969 0 A 4.9999997 4.9999997 0 0 1 16.667969 5 A 4.9999997 4.9999997 0 0 1 11.667969 0 L 5 0 z M 15 15 L 85 15 L 85 85 L 15 85 L 15 15 z "
       transform="matrix(0.26458333,0,0,0.26458333,0,270.54165)"
       id="rect815" />
    <path
       style="fill:none;stroke:#f17ba7;stroke-width:1.32291663;stroke-linecap:square;stroke-linejoin:round;stroke-miterlimit:6;stroke-dasharray:none;stroke-opacity:1;paint-order:normal"
       d="m 6.6145832,285.09373 c 0.1714372,1.70103 1.5393797,3.0228 3.0286072,3.70306 1.1769266,0.70948 2.5872796,0.37752 3.8821176,0.45809 1.660158,-0.0311 3.194835,-0.84729 4.50234,-1.81067 0.918035,-0.63902 1.39097,-1.69298 1.816181,-2.35098"
       id="path4637"
       inkscape:connector-curvature="0"
       sodipodi:nodetypes="ccccc" />
    <circle
       style="fill:#f17ba7;fill-opacity:1;stroke:none;stroke-width:1.32291663;stroke-linecap:square;stroke-linejoin:round;stroke-miterlimit:6;stroke-dasharray:none;stroke-opacity:1;paint-order:normal"
       id="path4648"
       cx="15.875"
       cy="280.06668"
       r="1.3229166" />
    <circle
       r="1.3229166"
       cy="280.06668"
       cx="10.583333"
       id="circle4650"
       style="fill:#f17ba7;fill-opacity:1;stroke:none;stroke-width:1.32291663;stroke-linecap:square;stroke-linejoin:round;stroke-miterlimit:6;stroke-dasharray:none;stroke-opacity:1;paint-order:normal" />
  </g>
</svg>
